<svg width="201" height="73" viewBox="0 0 201 73" fill="none" xmlns="http://www.w3.org/2000/svg"><g clip-path="url(#clip0)" fill="#fff"><path d="M47.723 11.607c-.936 0-1.694-.555-1.694-1.236V1.236c0-.68.758-1.236 1.694-1.236.935 0 1.693.555 1.693 1.236v9.135c0 .681-.758 1.236-1.693 1.236zm12.41 4.315c-.809-.53-1.061-1.514-.606-2.22l3.437-6.738c.455-.706 1.492-.832 2.275-.302.784.53 1.062 1.514.607 2.22l-3.438 6.737c-.48.682-1.491.833-2.275.303zm-24.796 0c.783-.53 1.036-1.514.581-2.22l-3.69-6.738c-.455-.706-1.44-.832-2.225-.302-.783.53-1.036 1.514-.58 2.22l3.69 6.737c.455.682 1.44.833 2.224.303zm20.701 45.319a2 2 0 0 1-1.996 1.994H41.63a1.983 1.983 0 0 1-1.997-1.994 2 2 0 0 1 1.997-1.993h12.41a2 2 0 0 1 1.997 1.993zm-1.693 6.334c0 1.11-.885 1.993-1.997 1.993h-9.024a2 2 0 0 1-1.997-1.993c0-1.11.885-1.994 1.997-1.994h9.024c1.112.026 1.997.909 1.997 1.994zM20.17 32.299c-.833-2.852-3.032-3.785-5.889-3.785-4.398 0-6.925 2.372-6.925 6.61 0 4.24 2.552 6.612 6.925 6.612 3.135 0 5.536-1.69 5.89-4.39h7.33c-1.29 7.645-6.774 9.386-13.826 9.386C5.535 46.732 0 43.275 0 35.125 0 27 5.738 23.517 14.281 23.517c5.485 0 11.906 1.64 13.22 8.782h-7.33zm27.679-3.785c-4.398 0-6.926 2.372-6.926 6.61 0 4.24 2.553 6.612 6.926 6.612 4.398 0 6.926-2.372 6.926-6.611 0-4.24-2.553-6.611-6.926-6.611z"/><path d="M66.023 35.175c0-10.017-8.14-18.168-18.2-18.168-10.06 0-18.199 8.125-18.199 18.168a18.082 18.082 0 0 0 6.9 14.232H36.5s3.084 2.17 3.084 4.693v.454a2.49 2.49 0 0 0 2.503 2.499H53.51a2.49 2.49 0 0 0 2.502-2.499v-.378c0-2.675 3.084-4.744 3.084-4.744h-.025c4.246-3.356 6.95-8.478 6.95-14.257zM47.849 46.707c-8.544 0-14.282-3.457-14.282-11.607 0-8.126 5.738-11.608 14.282-11.608 8.543 0 14.281 3.457 14.281 11.608-.025 8.15-5.738 11.607-14.281 11.607zm38.572-13.046c0-2.977-1.567-4.44-4.752-4.44-3.311 0-6.092 1.665-6.092 6.232v10.421h-7.102v-21.55h6.85v3.13h.075c1.29-1.817 4.677-3.71 8.822-3.71 3.665 0 9.277 1.414 9.277 7.772V45.9h-7.103V33.661h.025zm31.09-1.362c-.859-2.852-3.033-3.785-5.889-3.785-4.399 0-6.951 2.372-6.951 6.61 0 4.24 2.552 6.612 6.951 6.612 3.159 0 5.535-1.69 5.889-4.39h7.33c-1.289 7.645-6.774 9.386-13.826 9.386-8.139 0-13.675-3.457-13.675-11.607 0-8.125 5.738-11.608 14.282-11.608 5.485 0 11.905 1.64 13.219 8.782h-7.33zm35.109-7.974l-11.829 25.132c-1.694 3.634-3.64 4.467-7.583 4.467-1.643 0-3.337-.076-5.005-.152v-4.996c1.011.076 2.048.151 3.059.151 1.744 0 2.527-.731 3.336-2.22l.733-1.565-10.161-20.817h7.709l6.168 14.257 5.965-14.257h7.608zm1.77 0h6.85v2.927h.076c2.704-2.902 5.08-3.507 8.063-3.507 7.027 0 12.537 3.785 12.537 11.355 0 7.014-5.257 11.607-12.057 11.607-3.994 0-6.926-1.287-8.316-3.23h-.076v10.421h-7.102V24.325h.025zm13.498 17.159c3.589 0 6.698-2.145 6.698-6.233 0-4.113-3.109-6.233-6.698-6.233-3.539 0-6.648 2.145-6.648 6.233 0 4.088 3.109 6.233 6.648 6.233zm20.17-23.846h7.103v6.687h5.738v4.744h-5.738v10.068c0 1.69.531 2.246 2.376 2.246 1.239 0 2.351-.076 3.463-.152v4.744c-1.34.151-3.994.404-5.561.404-6.723 0-7.381-2.498-7.381-6.41v-10.9h-4.474v-4.744h4.474v-6.687zM86.724 63.285h-.986v-.858h.986v-2.069h.986v2.07h1.87v.857h-1.87v3.785c0 1.741 1.112 1.968 1.668 1.968.203 0 .354-.025.354-.025v.908s-.177.026-.43.026c-.859 0-2.603-.278-2.603-2.776v-3.886h.025zm5.839-2.625c0-.201-.126-.327-.328-.327h-.632v-.883h1.061c.632 0 .91.277.91.883v3.154c0 .328-.025.606-.025.606h.025c.278-.707 1.29-1.842 2.958-1.842 1.845 0 2.502 1.06 2.502 2.901v3.533c0 .227.126.328.329.328h.632v.883h-1.062c-.632 0-.91-.277-.91-.908v-3.583c0-1.161-.177-2.22-1.643-2.22-1.264 0-2.35.882-2.704 2.119-.102.303-.127.63-.127.984v3.608h-1.011v-9.235h.025zm10.212 2.978c0-.201-.126-.328-.329-.328h-.632v-.883h1.062c.632 0 .91.278.91.909v5.35c0 .226.126.327.329.327h.632v.883h-1.062c-.632 0-.91-.277-.91-.908v-5.35zm-.025-4.163h.985v1.287h-.985v-1.287zm4.802 4.163c0-.201-.126-.328-.328-.328h-.632v-.883h1.036c.632 0 .91.278.91.833v.353c0 .303-.025.53-.025.53h.025c.278-.681 1.213-1.892 2.983-1.892 1.845 0 2.502 1.06 2.502 2.901v3.533c0 .227.127.328.329.328h.632v.883h-1.062c-.632 0-.91-.277-.91-.908v-3.583c0-1.161-.177-2.22-1.618-2.22-1.289 0-2.376.882-2.73 2.094a4.287 4.287 0 0 0-.126 1.009v3.608h-1.011v-6.258h.025zm10.086-2.978c0-.201-.127-.327-.329-.327h-.632v-.883h1.062c.632 0 .91.227.91.858v4.945h.783c.278 0 .632-.075.835-.353l1.921-2.498h1.238l-2.148 2.725c-.38.454-.556.53-.556.53v.025s.227.101.454.555l1.34 2.423c.127.252.278.328.683.328h.404v.883h-.708c-.733 0-.96-.126-1.289-.732l-1.491-2.674c-.152-.303-.531-.329-.784-.329h-.682v3.76h-1.011v-9.235zm8.619 2.978c0-.201-.126-.328-.329-.328h-.632v-.883h1.062c.632 0 .91.278.91.909v5.35c0 .226.126.327.329.327h.631v.883h-1.061c-.632 0-.91-.277-.91-.908v-5.35zm-.025-4.163h.985v1.287h-.985v-1.287zm4.802 4.163c0-.201-.126-.328-.328-.328h-.632v-.883h1.036c.632 0 .91.278.91.833v.353c0 .303-.025.53-.025.53h.025c.278-.681 1.213-1.892 2.983-1.892 1.845 0 2.502 1.06 2.502 2.901v3.533c0 .227.126.328.329.328h.632v.883h-1.062c-.632 0-.91-.277-.91-.908v-3.583c0-1.161-.177-2.22-1.618-2.22-1.289 0-2.376.882-2.704 2.094-.101.302-.127.656-.127 1.009v3.608h-1.011v-6.258zm12.714-1.388c1.997 0 2.478 1.288 2.478 1.288h.025v-.278c0-.53.227-.807.834-.807h1.036v.883h-.606c-.203 0-.329.1-.329.328v6.08c0 2.373-1.744 3.281-3.589 3.281a5.318 5.318 0 0 1-2.427-.605l.379-.833s.91.53 2.023.53c1.466 0 2.603-.681 2.603-2.347v-.656c0-.278.025-.53.025-.53h-.025c-.455.808-1.188 1.287-2.351 1.287-1.997 0-3.336-1.59-3.336-3.835 0-2.246 1.238-3.785 3.26-3.785zm2.452 3.76c0-2.17-1.036-2.851-2.35-2.851-1.466 0-2.301 1.06-2.301 2.826 0 1.792.961 2.927 2.427 2.927 1.188.025 2.224-.706 2.224-2.902zm9.555 2.07s.834 1.135 2.3 1.135c.834 0 1.567-.404 1.567-1.186 0-1.64-4.196-1.337-4.196-3.734 0-1.363 1.163-2.02 2.654-2.02.759 0 2.275.304 2.275 1.338v.631h-.96v-.353c0-.555-.809-.757-1.289-.757-1.037 0-1.669.353-1.669 1.085 0 1.665 4.196 1.287 4.196 3.76 0 1.236-1.137 2.094-2.603 2.094-1.946 0-2.856-1.312-2.856-1.312l.581-.681zm7.912-4.442c0-.201-.127-.328-.329-.328h-.632v-.883h1.036c.632 0 .91.278.91.833v.353c0 .303-.025.53-.025.53h.025c.38-1.01 1.542-1.892 2.705-1.892 1.39 0 2.098.63 2.325 1.867h.026c.404-1.01 1.491-1.867 2.755-1.867 1.82 0 2.477 1.06 2.477 2.901v3.533c0 .227.126.328.329.328h.631v.883h-1.061c-.632 0-.91-.277-.91-.908v-3.583c0-1.211-.253-2.22-1.618-2.22-1.137 0-2.072 1.009-2.351 2.094-.101.328-.126.68-.126 1.085v3.532h-1.011v-4.491c0-1.136-.152-2.22-1.567-2.22-1.213 0-2.123 1.059-2.427 2.194-.101.303-.126.657-.126.985v3.532h-1.011v-6.258h-.025zm18.805 1.666h.405v-.076c0-1.564-.556-2.094-1.921-2.094-.379 0-1.466.1-1.466.656v.48h-.961v-.707c0-1.035 1.795-1.262 2.427-1.262 2.35 0 2.932 1.262 2.932 2.851v3.584c0 .227.126.328.328.328h.632v.883h-1.036c-.632 0-.885-.278-.885-.883 0-.328.026-.555.026-.555h-.026c.026 0-.606 1.614-2.477 1.614-1.238 0-2.553-.731-2.553-2.22 0-2.524 3.286-2.6 4.575-2.6zm-1.87 3.911c1.415 0 2.275-1.489 2.275-2.776v-.328h-.43c-1.163 0-3.513.025-3.513 1.716 0 .681.556 1.388 1.668 1.388zm6.976-5.577c0-.201-.126-.328-.328-.328h-.632v-.883h1.036c.632 0 .91.253.91.858v.505c0 .303-.025.555-.025.555h.025c.354-1.136 1.188-1.993 2.351-1.993.202 0 .404.05.404.05v.984s-.177-.025-.379-.025c-1.062 0-1.845.833-2.174 1.918a4.888 4.888 0 0 0-.202 1.463v3.154h-1.011v-6.258h.025zm6.572-.353h-.986v-.858h.986v-2.069h.986v2.07h1.87v.857h-1.87v3.785c0 1.741 1.112 1.968 1.668 1.968.202 0 .354-.025.354-.025v.908s-.177.026-.43.026c-.859 0-2.603-.278-2.603-2.776v-3.886h.025zm5.713 5.425H201v1.186h-1.137V68.71z"/></g><defs><clipPath id="clip0"><path fill="#fff" d="M0 0h201v73H0z"/></clipPath></defs></svg>